<?xml version="1.0" encoding="UTF-8" standalone="no"?>
<!-- Generator: Adobe Fireworks 10, Export SVG Extension by Aaron Beall (http://fireworks.abeall.com) . Version: 0.6.1  -->
<!DOCTYPE svg PUBLIC "-//W3C//DTD SVG 1.1//EN" "http://www.w3.org/Graphics/SVG/1.1/DTD/svg11.dtd">
<svg id="Untitled-Page%201" viewBox="0 0 128 128" style="background-color:#ffffff00" version="1.1" xmlns="http://www.w3.org/2000/svg" xmlns:xlink="http://www.w3.org/1999/xlink" xml:space="preserve" x="0px" y="0px" width="128px" height="128px">
	<g id="Layer%201">
		<path d="M 95.6425 51.4145 C 95.6425 58.491 95.7419 64.3568 95.6124 70.2175 C 95.4977 75.4248 96.9583 80.0322 100.1389 84.1299 C 100.8799 85.0852 101.6233 86.0495 102.249 87.0803 C 103.2718 88.7645 102.9969 90.1716 101.5267 91.4442 C 97.6096 94.8346 93.6953 98.2284 89.7765 101.6165 C 87.4881 103.5958 85.9741 103.555 83.6749 101.5672 C 80.9792 99.2371 78.6941 96.5676 76.7646 93.5768 C 75.3864 91.4414 75.375 91.4732 73.5999 93.1925 C 69.9241 96.7532 65.978 99.9909 61.0615 101.6421 C 53.6838 104.1203 46.133 104.5625 38.6435 102.2852 C 31.3507 100.0669 26.3748 95.1882 24.0991 87.883 C 21.3186 78.9566 21.7521 70.1925 26.452 61.9435 C 30.5895 54.6811 37.2161 50.6209 45.0191 48.2698 C 51.8229 46.2202 58.8587 45.4962 65.8889 44.7639 C 67.6231 44.5834 69.3562 44.3938 71.0899 44.2153 C 71.5209 44.171 71.9877 44.2341 71.9724 43.5623 C 71.8929 40.0853 72.2512 36.5851 71.375 33.153 C 70.4295 29.4512 68.1223 27.0181 64.4323 26.0901 C 59.062 24.7397 54.154 25.5954 50.0839 29.6229 C 48.4902 31.2001 47.6355 33.191 47.1162 35.3406 C 46.4527 38.0873 45.3323 38.8241 42.5731 38.5008 C 37.8604 37.9488 33.1409 37.4584 28.4242 36.9427 C 25.8901 36.6657 24.8668 35.2307 25.3947 32.7477 C 27.7081 21.8604 34.171 14.4797 44.5614 10.7271 C 56.1966 6.5256 67.9792 6.2517 79.6362 10.6757 C 89.5755 14.4476 94.6829 21.882 95.408 32.4324 C 95.8708 39.1615 95.4972 45.8966 95.6425 51.4145 ZM 71.9724 63.8527 C 71.9724 62.1082 71.9502 60.3636 71.9837 58.6196 C 71.9968 57.9134 71.8497 57.5462 71.028 57.6015 C 67.9871 57.8064 64.9315 57.8643 61.932 58.4671 C 58.3431 59.1877 54.8496 60.233 52.0458 62.7084 C 47.0066 67.1574 46.2147 72.883 47.6861 79.0355 C 49.1265 85.059 54.5294 87.9885 60.4539 86.1716 C 65.0581 84.7599 67.8162 81.3763 69.7662 77.1941 C 71.7424 72.9557 71.9531 68.4181 71.9724 63.8527 Z" fill="#000000"/>
		<path d="M 56.8375 121.4657 C 36.2068 121.2216 17.4923 115.2133 0.8358 102.9698 C 0.4866 102.7132 0.1354 102.4475 -0.1622 102.1354 C -0.5273 101.7528 -0.6014 101.2607 -0.3672 100.7867 C -0.1154 100.2775 0.3832 100.1799 0.8824 100.2741 C 1.3029 100.3525 1.7188 100.5057 2.1101 100.6845 C 15.9952 107.0248 30.5645 110.6309 45.7832 111.7202 C 69.4647 113.4151 91.7924 108.6494 112.8646 97.8061 C 113.1225 97.6733 113.3729 97.5251 113.6375 97.4071 C 114.7176 96.9252 115.7869 96.9161 116.5007 97.9526 C 117.2553 99.0486 116.6705 99.9665 115.7982 100.7322 C 111.5188 104.491 106.8175 107.6362 101.7681 110.2546 C 88.454 117.1597 74.3415 121.0246 59.2983 121.3102 C 58.4774 121.3255 57.6577 121.4118 56.8375 121.4657 Z" fill="#f49b08"/>
		<path d="M 120.5359 87.1757 C 122.0901 87.1604 123.633 87.2291 125.1571 87.5679 C 126.4263 87.85 127.1742 88.5227 127.3394 89.8986 C 127.9203 94.7483 126.8528 99.3126 125.0487 103.7576 C 124.1503 105.9702 122.9107 107.9813 121.3178 109.767 C 121.0612 110.0554 120.8016 110.3539 120.4939 110.5804 C 120.1134 110.8614 119.6954 111.1946 119.1764 110.9079 C 118.6267 110.6043 118.771 110.0684 118.8573 109.6104 C 118.955 109.091 119.1611 108.5932 119.3019 108.0812 C 120.382 104.1714 121.6517 100.2946 121.7369 96.1878 C 121.7914 93.5597 121.2486 92.8951 118.6438 92.6135 C 115.4325 92.2656 112.2877 92.9609 109.1423 93.4865 C 107.7607 93.717 106.3865 93.9968 105.0179 94.2959 C 104.4626 94.4168 103.9191 94.5207 103.6028 93.9514 C 103.2405 93.2986 103.7266 92.832 104.1536 92.4608 C 105.4007 91.3767 106.7959 90.5059 108.2968 89.8123 C 112.1792 88.0181 116.2747 87.2092 120.5359 87.1757 Z" fill="#f49b08"/>
	</g>
</svg>